<svg width="189" height="79" viewBox="0 0 189 79" fill="none" xmlns="http://www.w3.org/2000/svg">
<g clip-path="url(#clip0_5464_662)">
<path d="M38.4665 1.2904C38.371 0.382339 38.2276 0 37.8931 0C37.5586 0 37.3675 0.334547 37.1763 0.764681L23.1277 30.7785L8.50564 0.716889C8.26672 0.191171 8.07558 0 7.78887 0C7.50217 0 7.31103 0.334547 7.26324 0.860268L3.82276 32.0211C3.63162 33.8372 3.48827 35.7011 1.91138 35.9879C1.19461 36.1312 0.860121 36.1312 0.477845 36.1312C0.238923 36.1312 0 36.2268 0 36.3702C0 36.7048 0.334492 36.8003 0.812336 36.8003C2.10252 36.8003 4.39617 36.657 4.82623 36.657C5.20851 36.657 7.50217 36.8003 9.27019 36.8003C9.84361 36.8003 10.1303 36.7048 10.1303 36.3702C10.1303 36.2268 9.93918 36.1312 9.74804 36.1312C9.46133 36.1312 8.74456 36.0835 7.93223 35.8923C7.21546 35.7489 6.68983 35.1276 6.68983 34.4107C6.68983 33.5982 6.68983 32.738 6.73761 31.9733L8.64899 9.79749H8.84013C9.36576 11.0879 14.7176 22.5581 15.1477 23.4184C15.3866 23.8963 19.4961 32.1645 20.7385 34.5063C21.6464 36.2268 21.8853 36.7048 22.2198 36.7048C22.6499 36.7048 22.7932 36.2746 23.7967 34.1717L35.5039 9.31957H35.6472L37.9409 33.9806C38.0365 34.8408 37.9887 35.6533 37.7498 35.7011C37.5108 35.7489 37.4153 35.8445 37.4153 36.0357C37.4153 36.2746 37.6542 36.418 38.7532 36.5136C40.5213 36.657 45.682 36.8003 46.7332 36.8003C47.3067 36.8003 47.7367 36.657 47.7367 36.3702C47.7367 36.179 47.5934 36.1312 47.3544 36.1312C46.8766 36.1312 45.6342 36.1312 44.2484 35.7011C42.1937 35.032 41.8592 32.3556 41.6681 30.6351L38.4665 1.2904Z" fill="white"/>
<path d="M53.2226 18.6869C53.2226 27.2896 58.67 37.4694 71.763 37.4694C83.279 37.4694 90.829 28.6278 90.829 17.9222C90.829 6.78656 82.8012 0 72.0497 0C58.8612 0 53.2226 10.9445 53.2226 18.6869ZM57.7621 17.3487C57.7621 6.88214 63.7352 1.62495 71.7152 1.62495C79.2651 1.62495 86.2417 7.7902 86.2417 19.2604C86.2417 33.1681 77.3538 35.6533 73.0532 35.6533C64.452 35.6533 57.7621 28.4844 57.7621 17.3487Z" fill="white"/>
<path d="M113.655 2.72418L119.676 2.81977C124.264 2.91535 125.41 4.01458 125.554 5.44836L125.602 5.97408C125.649 6.64318 125.745 6.78656 125.984 6.78656C126.175 6.78656 126.318 6.59539 126.318 6.16525C126.318 5.63953 126.462 2.34184 126.462 0.90806C126.462 0.621305 126.462 0.334547 126.223 0.334547C126.032 0.334547 125.602 0.477926 124.885 0.57351C124.12 0.716889 123.021 0.812473 121.492 0.812473H103.573C102.999 0.812473 101.184 0.716889 99.7979 0.57351C98.5077 0.477926 98.0299 0 97.6954 0C97.5043 0 97.3131 0.621305 97.2176 0.90806C97.122 1.2904 96.1663 5.40057 96.1663 5.87849C96.1663 6.16525 96.2619 6.30863 96.4052 6.30863C96.5964 6.30863 96.7397 6.21304 96.8831 5.8307C97.0264 5.49616 97.1698 5.16161 97.6954 4.34913C98.46 3.20211 99.6068 2.86756 102.569 2.81977L109.642 2.72418V22.9405C109.642 27.5286 109.642 31.3042 109.403 33.3115C109.211 34.6975 108.973 35.7489 108.017 35.9401C107.587 36.0357 107.013 36.1312 106.583 36.1312C106.297 36.1312 106.201 36.2746 106.201 36.418C106.201 36.7048 106.44 36.8003 106.966 36.8003C108.399 36.8003 111.41 36.657 111.648 36.657C111.887 36.657 114.898 36.8003 117.526 36.8003C118.052 36.8003 118.291 36.657 118.291 36.418C118.291 36.2746 118.195 36.1312 117.908 36.1312C117.478 36.1312 116.427 36.0357 115.758 35.9401C114.324 35.7489 114.038 34.6975 113.894 33.3115C113.655 31.3042 113.655 27.5286 113.655 22.9405V2.72418Z" fill="white"/>
<path d="M138.905 22.9405C138.905 27.5286 138.905 31.3042 138.666 33.3115C138.475 34.6975 138.236 35.7489 137.28 35.9401C136.85 36.0357 136.277 36.1312 135.847 36.1312C135.56 36.1312 135.465 36.2746 135.465 36.418C135.465 36.7048 135.703 36.8003 136.229 36.8003C136.946 36.8003 138.045 36.7048 139.001 36.7048C140.004 36.657 140.816 36.657 140.912 36.657C141.629 36.657 142.776 36.7048 144.639 36.8003C146.503 36.8481 149.131 36.9437 152.715 36.9437C154.578 36.9437 154.961 36.9437 155.295 35.7011C155.534 34.6975 155.916 31.4476 155.916 31.0652C155.916 30.7307 155.916 30.3483 155.63 30.3483C155.391 30.3483 155.295 30.5395 155.2 31.0652C154.865 33.0247 154.292 33.9806 153.049 34.5063C151.807 35.032 149.704 35.032 148.462 35.032C143.779 35.032 143.062 34.4107 142.919 31.113C142.871 30.1094 142.919 24.5654 142.919 22.9405V18.7347C142.919 18.5435 143.015 18.4002 143.253 18.4002C144.066 18.4002 148.796 18.4958 150.087 18.6391C151.95 18.8303 152.38 19.6428 152.571 20.3119C152.763 20.9332 152.763 21.4111 152.763 21.889C152.763 22.128 152.858 22.3192 153.097 22.3192C153.432 22.3192 153.432 21.7935 153.432 21.4111C153.432 21.0766 153.527 19.3082 153.623 18.3524C153.766 16.7752 154.005 15.9627 154.005 15.676C154.005 15.3892 153.909 15.2936 153.766 15.2936C153.575 15.2936 153.384 15.5326 153.049 15.915C152.619 16.3929 151.95 16.4885 150.803 16.5841C149.704 16.6796 143.827 16.6796 143.206 16.6796C142.967 16.6796 142.919 16.5363 142.919 16.2017V3.01094C142.919 2.67639 143.015 2.53301 143.206 2.53301C143.731 2.53301 148.94 2.5808 149.752 2.67639C152.332 2.96314 152.81 3.53666 153.145 4.30134C153.384 4.87485 153.432 5.68733 153.432 6.02187C153.432 6.40422 153.527 6.64318 153.814 6.64318C154.005 6.64318 154.101 6.35642 154.148 6.11746C154.244 5.54395 154.339 3.44107 154.387 2.96314C154.531 1.62495 154.77 1.05144 154.77 0.716889C154.77 0.477926 154.722 0.286755 154.578 0.286755C154.339 0.286755 154.148 0.477926 153.909 0.525718C153.527 0.621305 152.763 0.716889 151.855 0.764681C150.756 0.812473 141.246 0.812473 140.912 0.812473L138.953 0.716889C137.902 0.669097 136.611 0.669097 135.512 0.669097C134.987 0.669097 134.748 0.764681 134.748 1.05144C134.748 1.24261 134.939 1.33819 135.13 1.33819C135.56 1.33819 136.372 1.38599 136.755 1.48157C138.332 1.81612 138.714 2.5808 138.809 4.20575C138.905 5.73512 138.905 7.07331 138.905 14.529V22.9405Z" fill="white"/>
<path d="M174.474 14.529C174.474 7.07331 174.474 5.73512 174.569 4.20575C174.665 2.53301 175.047 1.72054 176.433 1.48157C177.006 1.38599 177.675 1.33819 178.01 1.33819C178.201 1.33819 178.392 1.24261 178.392 1.05144C178.392 0.764681 178.153 0.669097 177.627 0.669097C176.194 0.669097 172.706 0.812473 172.467 0.812473C172.228 0.812473 169.217 0.669097 167.067 0.669097C166.541 0.669097 166.302 0.764681 166.302 1.05144C166.302 1.24261 166.493 1.33819 166.685 1.33819C167.115 1.33819 167.927 1.38599 168.309 1.48157C169.886 1.81612 170.268 2.5808 170.364 4.20575C170.46 5.73512 170.46 7.07331 170.46 14.529V22.9405C170.46 27.5286 170.46 31.3042 170.221 33.3115C170.03 34.6975 169.791 35.7489 168.835 35.9401C168.405 36.0357 167.831 36.1312 167.401 36.1312C167.115 36.1312 167.019 36.2746 167.019 36.418C167.019 36.7048 167.258 36.8003 167.784 36.8003C168.5 36.8003 169.552 36.7525 170.507 36.7048C171.463 36.7048 172.275 36.657 172.467 36.657C173.852 36.657 175.334 36.7048 177.341 36.8003C179.348 36.8481 181.832 36.9437 185.273 36.9437C187.805 36.9437 187.949 36.7525 188.283 35.6533C188.666 34.2673 189 31.3998 189 30.8741C189 30.3483 188.952 30.1572 188.713 30.1572C188.427 30.1572 188.331 30.3961 188.283 30.7785C188.14 31.6865 187.662 32.8813 187.041 33.646C185.894 35.032 183.792 35.0798 181.259 35.0798C177.532 35.0798 176.289 34.7453 175.525 33.9806C174.665 33.1203 174.474 30.0616 174.474 23.0361V14.529Z" fill="white"/>
<path d="M12.0951 46.1123C11.3501 44.1748 10.754 42.6348 10.754 41.989C10.754 41.6412 10.8533 41.2438 11.3997 40.9954C11.8468 40.7967 12.7408 40.747 13.2872 40.747C13.6349 40.747 13.7839 40.6476 13.7839 40.3992C13.7839 40.1508 13.3369 40.0515 12.4428 40.0515C10.5553 40.0515 8.32014 40.2005 7.82343 40.2005C7.22739 40.2005 4.39615 40.0515 2.01196 40.0515C1.21723 40.0515 0.72052 40.1011 0.72052 40.3992C0.72052 40.5979 0.819862 40.747 1.11789 40.747C1.41591 40.747 2.26031 40.747 3.00537 40.9457C4.74385 41.4425 5.48891 41.989 6.58167 44.771L18.751 75.2243C19.6947 77.6089 19.9431 78.3045 20.5391 78.3045C21.0358 78.3045 21.2345 77.5096 22.6253 74.5288C23.7677 72.0946 26.0029 66.7292 29.0328 59.476C31.566 53.3655 34.0496 47.404 34.596 46.013C35.9371 42.6348 36.6821 41.7902 37.3278 41.3431C38.2716 40.747 39.3643 40.747 39.712 40.747C40.1094 40.747 40.3081 40.6476 40.3081 40.3992C40.3081 40.1508 40.0101 40.0515 39.4637 40.0515C38.0232 40.0515 35.8874 40.2005 35.5894 40.2005C34.9933 40.2005 32.7085 40.0515 30.7216 40.0515C29.9269 40.0515 29.6289 40.1508 29.6289 40.4489C29.6289 40.6973 29.8772 40.747 30.1753 40.747C30.7216 40.747 31.4667 40.747 32.0627 40.9457C32.5595 41.1941 32.7085 41.6909 32.7085 42.0883C32.7085 42.5354 32.5098 43.2309 32.2614 43.9761C31.1687 47.553 24.5128 64.8911 21.6319 71.5481L12.0951 46.1123Z" fill="white"/>
<path d="M54.8709 54.4584C54.8709 46.7085 54.8709 45.3175 54.9703 43.7277C55.0696 41.989 55.467 41.1444 56.8081 40.896C57.4041 40.7967 57.7022 40.747 58.0498 40.747C58.2485 40.747 58.4472 40.6476 58.4472 40.4489C58.4472 40.1508 58.1989 40.0515 57.6525 40.0515C56.1624 40.0515 53.0331 40.2005 52.7848 40.2005C52.5364 40.2005 49.4071 40.0515 47.768 40.0515C47.2216 40.0515 46.9733 40.1508 46.9733 40.4489C46.9733 40.6476 47.172 40.747 47.3706 40.747C47.7183 40.747 48.3641 40.7967 48.9104 40.9457C50.0032 41.1941 50.4999 42.0386 50.5992 43.7277C50.6986 45.3175 50.6986 46.7085 50.6986 54.4584V63.202C50.6986 67.9712 50.6986 71.8958 50.4502 73.9824C50.2515 75.4231 50.0032 76.516 49.0098 76.7147C48.5627 76.8141 47.9667 76.9134 47.5197 76.9134C47.2216 76.9134 47.1223 77.0625 47.1223 77.2115C47.1223 77.5096 47.3706 77.6089 47.917 77.6089C49.4071 77.6089 52.5364 77.4599 52.7848 77.4599C53.0331 77.4599 56.1624 77.6089 58.8943 77.6089C59.4406 77.6089 59.689 77.4599 59.689 77.2115C59.689 77.0625 59.5896 76.9134 59.2916 76.9134C58.8446 76.9134 57.7518 76.8141 57.0564 76.7147C55.5663 76.516 55.2683 75.4231 55.1193 73.9824C54.8709 71.8958 54.8709 67.9712 54.8709 63.202V54.4584Z" fill="white"/>
<path d="M79.0322 78.3045C81.7145 78.3045 84.3967 77.7083 86.5325 76.2179C89.9598 73.7836 90.7545 70.008 90.7545 67.9712C90.7545 63.9968 89.3637 60.9167 83.5026 56.2966L82.1118 55.2036C77.3434 51.4777 76.052 49.6892 76.052 46.8575C76.052 43.2309 78.7342 41.0947 82.1615 41.0947C86.7312 41.0947 88.0723 43.1813 88.3703 43.7277C88.6684 44.2742 88.9664 45.6155 89.0161 46.2117C89.0657 46.6091 89.1154 46.8575 89.4134 46.8575C89.6618 46.8575 89.7611 46.5098 89.7611 45.7149C89.7611 42.3367 89.9598 40.6973 89.9598 40.4489C89.9598 40.2005 89.8605 40.1011 89.4631 40.1011C89.0657 40.1011 88.6684 40.0515 87.7246 39.8527C86.4828 39.5547 85.0424 39.356 83.1052 39.356C76.7971 39.356 72.8234 42.9825 72.8234 48.2982C72.8234 51.6764 74.0155 54.7565 79.2806 59.0786L81.5158 60.9167C85.7875 64.444 87.2279 66.4311 87.2279 69.859C87.2279 73.0385 84.8934 76.4663 80.125 76.4663C76.7971 76.4663 73.5188 75.0753 72.7737 71.399C72.6247 70.7035 72.6247 70.008 72.6247 69.5609C72.6247 69.1635 72.575 69.0144 72.277 69.0144C72.0287 69.0144 71.9293 69.2628 71.8797 69.8093C71.83 70.6042 71.6313 72.5913 71.6313 75.0753C71.6313 76.4166 71.681 76.6154 72.3764 76.9631C74.4129 77.9567 76.6977 78.3045 79.0322 78.3045Z" fill="white"/>
<path d="M101.201 58.7805C101.201 67.7228 106.863 78.3045 120.473 78.3045C132.444 78.3045 140.292 69.1138 140.292 57.9857C140.292 46.4104 131.947 39.356 120.771 39.356C107.062 39.356 101.201 50.7325 101.201 58.7805ZM105.92 57.3895C105.92 46.5098 112.128 41.045 120.423 41.045C128.271 41.045 135.523 47.4537 135.523 59.3767C135.523 73.8333 126.285 76.4166 121.814 76.4166C112.874 76.4166 105.92 68.9648 105.92 57.3895Z" fill="white"/>
<path d="M154.486 47.0562C156.075 48.8447 161.688 55.1043 167.45 61.3142C172.715 66.9776 179.868 74.2804 180.414 74.7772C183.047 77.4102 183.643 77.9567 184.04 77.9567C184.388 77.9567 184.487 77.7083 184.487 74.4295L184.586 45.3175C184.586 42.3367 184.785 41.2438 186.424 40.896C187.02 40.747 187.368 40.747 187.616 40.747C187.964 40.747 188.163 40.5979 188.163 40.3992C188.163 40.1011 187.815 40.0515 187.269 40.0515C185.232 40.0515 183.593 40.2005 183.047 40.2005C182.5 40.2005 180.116 40.0515 177.881 40.0515C177.285 40.0515 176.887 40.1011 176.887 40.3992C176.887 40.5979 176.937 40.747 177.285 40.747C177.682 40.747 178.825 40.7967 179.719 40.9954C181.258 41.3928 181.606 42.4857 181.656 45.7149L182.202 70.9519C180.613 69.3125 175.199 63.2517 170.281 57.9857C162.632 49.7886 155.231 41.7902 154.486 40.9457C153.989 40.4489 153.145 39.356 152.747 39.356C152.35 39.356 152.201 39.9024 152.201 41.8399L152.151 70.3061C152.151 74.8269 151.903 76.2676 150.661 76.6154C149.916 76.8638 149.022 76.9134 148.625 76.9134C148.376 76.9134 148.227 77.0128 148.227 77.2115C148.227 77.5593 148.525 77.6089 149.022 77.6089C151.257 77.6089 153.344 77.4599 153.791 77.4599C154.238 77.4599 156.224 77.6089 159.056 77.6089C159.652 77.6089 159.95 77.5096 159.95 77.2115C159.95 77.0128 159.801 76.9134 159.552 76.9134C159.105 76.9134 158.013 76.8638 157.069 76.6154C155.728 76.2179 155.231 74.9263 155.132 70.8526L154.486 47.0562Z" fill="white"/>
</g>
<defs>
<clipPath id="clip0_5464_662">
<rect width="189" height="78.3045" fill="white"/>
</clipPath>
</defs>
</svg>
