<svg width="114" height="48" viewBox="0 0 114 48" fill="none" xmlns="http://www.w3.org/2000/svg">
<g clip-path="url(#clip0_5464_870)">
<path d="M23.0799 1.28291C23.0226 0.738071 22.9366 0.508667 22.7359 0.508667C22.5352 0.508667 22.4205 0.709395 22.3058 0.967476L13.8766 18.9757L5.10338 0.938801C4.96003 0.62337 4.84535 0.508667 4.67332 0.508667C4.5013 0.508667 4.38662 0.709395 4.35795 1.02483L2.29366 19.7213C2.17897 20.811 2.09296 21.9293 1.14683 22.1014C0.716767 22.1874 0.516073 22.1874 0.286707 22.1874C0.143354 22.1874 0 22.2448 0 22.3308C0 22.5315 0.200695 22.5889 0.487402 22.5889C1.26151 22.5889 2.6377 22.5028 2.89574 22.5028C3.12511 22.5028 4.5013 22.5889 5.56212 22.5889C5.90616 22.5889 6.07819 22.5315 6.07819 22.3308C6.07819 22.2448 5.96351 22.1874 5.84882 22.1874C5.6768 22.1874 5.24674 22.1587 4.75934 22.044C4.32928 21.958 4.0139 21.5852 4.0139 21.1551C4.0139 20.6676 4.0139 20.1514 4.04257 19.6926L5.1894 6.38716H5.30408C5.61946 7.1614 8.83057 14.0435 9.08861 14.5597C9.23196 14.8465 11.6976 19.8073 12.4431 21.2124C12.9878 22.2448 13.1312 22.5315 13.3319 22.5315C13.5899 22.5315 13.6759 22.2734 14.278 21.0117L21.3023 6.10041H21.3883L22.7645 20.897C22.8219 21.4132 22.7932 21.9007 22.6499 21.9293C22.5065 21.958 22.4492 22.0154 22.4492 22.1301C22.4492 22.2734 22.5925 22.3595 23.2519 22.4168C24.3128 22.5028 27.4092 22.5889 28.0399 22.5889C28.384 22.5889 28.642 22.5028 28.642 22.3308C28.642 22.2161 28.556 22.1874 28.4127 22.1874C28.1259 22.1874 27.3805 22.1874 26.5491 21.9293C25.3162 21.5279 25.1155 19.922 25.0008 18.8897L23.0799 1.28291Z" fill="white"/>
<path d="M31.9336 11.7208C31.9336 16.8824 35.202 22.9903 43.0578 22.9903C49.9674 22.9903 54.4974 17.6853 54.4974 11.262C54.4974 4.5806 49.6807 0.508667 43.2298 0.508667C35.3167 0.508667 31.9336 7.07538 31.9336 11.7208ZM34.6573 10.9179C34.6573 4.63795 38.2411 1.48364 43.0291 1.48364C47.5591 1.48364 51.745 5.18279 51.745 12.0649C51.745 20.4095 46.4123 21.9007 43.8319 21.9007C38.6712 21.9007 34.6573 17.5993 34.6573 10.9179Z" fill="white"/>
<path d="M68.1933 2.14318L71.8058 2.20053C74.5582 2.25788 75.2462 2.91742 75.3323 3.77768L75.3609 4.09312C75.3896 4.49457 75.4469 4.5806 75.5903 4.5806C75.705 4.5806 75.791 4.4659 75.791 4.20782C75.791 3.89239 75.877 1.91377 75.877 1.0535C75.877 0.88145 75.877 0.709395 75.7337 0.709395C75.619 0.709395 75.3609 0.795423 74.9309 0.852773C74.4721 0.938801 73.8127 0.996151 72.8952 0.996151H62.1437C61.7997 0.996151 60.7102 0.938801 59.8787 0.852773C59.1046 0.795423 58.8179 0.508667 58.6172 0.508667C58.5026 0.508667 58.3879 0.88145 58.3305 1.0535C58.2732 1.28291 57.6998 3.74901 57.6998 4.03576C57.6998 4.20782 57.7571 4.29384 57.8431 4.29384C57.9578 4.29384 58.0438 4.23649 58.1298 4.00709C58.2158 3.80636 58.3019 3.60563 58.6172 3.11814C59.076 2.42993 59.7641 2.2292 61.5416 2.20053L65.7849 2.14318V14.273C65.7849 17.0258 65.7849 19.2912 65.6416 20.4956C65.5269 21.3271 65.3835 21.958 64.8101 22.0727C64.5521 22.1301 64.208 22.1874 63.95 22.1874C63.778 22.1874 63.7206 22.2734 63.7206 22.3595C63.7206 22.5315 63.864 22.5889 64.1794 22.5889C65.0395 22.5889 66.8457 22.5028 66.9891 22.5028C67.1324 22.5028 68.9387 22.5889 70.5156 22.5889C70.831 22.5889 70.9743 22.5028 70.9743 22.3595C70.9743 22.2734 70.917 22.1874 70.7449 22.1874C70.4869 22.1874 69.8561 22.1301 69.4548 22.0727C68.5946 21.958 68.4226 21.3271 68.3366 20.4956C68.1933 19.2912 68.1933 17.0258 68.1933 14.273V2.14318Z" fill="white"/>
<path d="M83.343 14.273C83.343 17.0258 83.343 19.2912 83.1997 20.4956C83.085 21.3271 82.9416 21.958 82.3682 22.0727C82.1102 22.1301 81.7661 22.1874 81.5081 22.1874C81.3361 22.1874 81.2787 22.2734 81.2787 22.3595C81.2787 22.5315 81.4221 22.5889 81.7375 22.5889C82.1675 22.5889 82.827 22.5315 83.4004 22.5315C84.0024 22.5028 84.4898 22.5028 84.5472 22.5028C84.9772 22.5028 85.6653 22.5315 86.7835 22.5889C87.9017 22.6175 89.4786 22.6749 91.6289 22.6749C92.747 22.6749 92.9764 22.6749 93.1771 21.9293C93.3204 21.3271 93.5498 19.3772 93.5498 19.1478C93.5498 18.9471 93.5498 18.7177 93.3778 18.7177C93.2344 18.7177 93.1771 18.8324 93.1197 19.1478C92.919 20.3235 92.575 20.897 91.8295 21.2124C91.0841 21.5279 89.8226 21.5279 89.0772 21.5279C86.2674 21.5279 85.8374 21.1551 85.7514 19.1765C85.7227 18.5743 85.7514 15.2479 85.7514 14.273V11.7495C85.7514 11.6348 85.8087 11.5488 85.9521 11.5488C86.4395 11.5488 89.2779 11.6061 90.052 11.6921C91.1701 11.8069 91.4282 12.2943 91.5428 12.6958C91.6575 13.0686 91.6575 13.3553 91.6575 13.6421C91.6575 13.7855 91.7149 13.9002 91.8582 13.9002C92.0589 13.9002 92.0589 13.5847 92.0589 13.3553C92.0589 13.1546 92.1163 12.0936 92.1736 11.5201C92.2596 10.5738 92.403 10.0863 92.403 9.91426C92.403 9.74221 92.3456 9.68486 92.2596 9.68486C92.1449 9.68486 92.0302 9.82823 91.8295 10.0576C91.5715 10.3444 91.1701 10.4017 90.482 10.4591C89.8226 10.5164 86.2961 10.5164 85.9234 10.5164C85.78 10.5164 85.7514 10.4304 85.7514 10.2297V2.31523C85.7514 2.1145 85.8087 2.02847 85.9234 2.02847C86.2388 2.02847 89.3639 2.05715 89.8513 2.1145C91.3995 2.28655 91.6862 2.63066 91.8869 3.08947C92.0302 3.43358 92.0589 3.92106 92.0589 4.12179C92.0589 4.3512 92.1163 4.49457 92.2883 4.49457C92.403 4.49457 92.4603 4.32252 92.489 4.17914C92.5463 3.83504 92.6037 2.57331 92.6323 2.28655C92.7183 1.48364 92.8617 1.13953 92.8617 0.938801C92.8617 0.795423 92.833 0.68072 92.747 0.68072C92.6037 0.68072 92.489 0.795423 92.3456 0.824098C92.1162 0.88145 91.6575 0.938801 91.1128 0.967476C90.4534 0.996151 84.7479 0.996151 84.5472 0.996151L83.3717 0.938801C82.7409 0.910125 81.9668 0.910125 81.3074 0.910125C80.992 0.910125 80.8487 0.967476 80.8487 1.13953C80.8487 1.25423 80.9634 1.31158 81.078 1.31158C81.3361 1.31158 81.8235 1.34026 82.0528 1.39761C82.999 1.59834 83.2283 2.05715 83.2857 3.03212C83.343 3.94974 83.343 4.75266 83.343 9.22605V14.273Z" fill="white"/>
<path d="M104.684 9.22605C104.684 4.75266 104.684 3.94974 104.741 3.03212C104.799 2.02847 105.028 1.54099 105.86 1.39761C106.204 1.34026 106.605 1.31158 106.806 1.31158C106.92 1.31158 107.035 1.25423 107.035 1.13953C107.035 0.967476 106.892 0.910125 106.576 0.910125C105.716 0.910125 103.623 0.996151 103.48 0.996151C103.337 0.996151 101.53 0.910125 100.24 0.910125C99.9248 0.910125 99.7814 0.967476 99.7814 1.13953C99.7814 1.25423 99.8961 1.31158 100.011 1.31158C100.269 1.31158 100.756 1.34026 100.986 1.39761C101.932 1.59834 102.161 2.05715 102.218 3.03212C102.276 3.94974 102.276 4.75266 102.276 9.22605V14.273C102.276 17.0258 102.276 19.2912 102.132 20.4956C102.018 21.3271 101.874 21.958 101.301 22.0727C101.043 22.1301 100.699 22.1874 100.441 22.1874C100.269 22.1874 100.211 22.2734 100.211 22.3595C100.211 22.5315 100.355 22.5889 100.67 22.5889C101.1 22.5889 101.731 22.5602 102.304 22.5315C102.878 22.5315 103.365 22.5028 103.48 22.5028C104.311 22.5028 105.2 22.5315 106.404 22.5889C107.609 22.6175 109.099 22.6749 111.164 22.6749C112.683 22.6749 112.769 22.5602 112.97 21.9007C113.199 21.0691 113.4 19.3485 113.4 19.0331C113.4 18.7177 113.371 18.603 113.228 18.603C113.056 18.603 112.999 18.7463 112.97 18.9757C112.884 19.5206 112.597 20.2375 112.225 20.6963C111.536 21.5279 110.275 21.5566 108.755 21.5566C106.519 21.5566 105.774 21.3558 105.315 20.897C104.799 20.3809 104.684 18.5456 104.684 14.3303V9.22605Z" fill="white"/>
<path d="M7.25701 28.1761C6.80997 27.0136 6.45234 26.0895 6.45234 25.7021C6.45234 25.4934 6.51195 25.2549 6.83977 25.1059C7.108 24.9867 7.64444 24.9569 7.97227 24.9569C8.18088 24.9569 8.27029 24.8972 8.27029 24.7482C8.27029 24.5992 8.00207 24.5396 7.46563 24.5396C6.33313 24.5396 4.99202 24.629 4.694 24.629C4.33637 24.629 2.63763 24.5396 1.20711 24.5396C0.730275 24.5396 0.432251 24.5694 0.432251 24.7482C0.432251 24.8674 0.491856 24.9569 0.67067 24.9569C0.849485 24.9569 1.35613 24.9569 1.80316 25.0761C2.84625 25.3742 3.29328 25.7021 3.94894 27.3713L11.2505 45.6433C11.8168 47.074 11.9658 47.4914 12.3234 47.4914C12.6214 47.4914 12.7407 47.0144 13.5751 45.226C14.2606 43.7654 15.6017 40.5462 17.4196 36.1943C18.9396 32.528 20.4297 28.9511 20.7575 28.1165C21.5622 26.0895 22.0092 25.5828 22.3966 25.3146C22.9629 24.9569 23.6185 24.9569 23.8272 24.9569C24.0656 24.9569 24.1848 24.8972 24.1848 24.7482C24.1848 24.5992 24.006 24.5396 23.6782 24.5396C22.8139 24.5396 21.5324 24.629 21.3536 24.629C20.9959 24.629 19.625 24.5396 18.4329 24.5396C17.9561 24.5396 17.7773 24.5992 17.7773 24.778C17.7773 24.9271 17.9263 24.9569 18.1051 24.9569C18.4329 24.9569 18.88 24.9569 19.2376 25.0761C19.5356 25.2251 19.625 25.5232 19.625 25.7617C19.625 26.0299 19.5058 26.4472 19.3568 26.8944C18.7011 29.0405 14.7076 39.4433 12.9791 43.4375L7.25701 28.1761Z" fill="white"/>
<path d="M32.9225 33.1837C32.9225 28.5338 32.9225 27.6992 32.9821 26.7453C33.0417 25.7021 33.2801 25.1953 34.0848 25.0463C34.4424 24.9867 34.6212 24.9569 34.8298 24.9569C34.9491 24.9569 35.0683 24.8972 35.0683 24.778C35.0683 24.5992 34.9193 24.5396 34.5914 24.5396C33.6974 24.5396 31.8198 24.629 31.6708 24.629C31.5218 24.629 29.6442 24.5396 28.6607 24.5396C28.3329 24.5396 28.1839 24.5992 28.1839 24.778C28.1839 24.8972 28.3031 24.9569 28.4223 24.9569C28.6309 24.9569 29.0184 24.9867 29.3462 25.0761C30.0019 25.2251 30.2999 25.7319 30.3595 26.7453C30.4191 27.6992 30.4191 28.5338 30.4191 33.1837V38.4299C30.4191 41.2914 30.4191 43.6462 30.2701 44.8981C30.1509 45.7625 30.0019 46.4183 29.4058 46.5375C29.1376 46.5971 28.78 46.6567 28.5117 46.6567C28.3329 46.6567 28.2733 46.7462 28.2733 46.8356C28.2733 47.0144 28.4223 47.074 28.7502 47.074C29.6442 47.074 31.5218 46.9846 31.6708 46.9846C31.8198 46.9846 33.6974 47.074 35.3365 47.074C35.6643 47.074 35.8133 46.9846 35.8133 46.8356C35.8133 46.7462 35.7537 46.6567 35.5749 46.6567C35.3067 46.6567 34.651 46.5971 34.2338 46.5375C33.3397 46.4183 33.1609 45.7625 33.0715 44.8981C32.9225 43.6462 32.9225 41.2914 32.9225 38.4299V33.1837Z" fill="white"/>
<path d="M47.4193 47.4914C49.0286 47.4914 50.6379 47.1337 51.9194 46.2394C53.9758 44.7789 54.4527 42.5135 54.4527 41.2914C54.4527 38.9068 53.6182 37.0587 50.1015 34.2866L49.267 33.6309C46.406 31.3953 45.6311 30.3222 45.6311 28.6232C45.6311 26.4472 47.2405 25.1655 49.2968 25.1655C52.0387 25.1655 52.8433 26.4174 53.0221 26.7453C53.201 27.0732 53.3798 27.878 53.4096 28.2357C53.4394 28.4742 53.4692 28.6232 53.648 28.6232C53.797 28.6232 53.8566 28.4145 53.8566 27.9376C53.8566 25.9107 53.9758 24.9271 53.9758 24.778C53.9758 24.629 53.9162 24.5694 53.6778 24.5694C53.4394 24.5694 53.201 24.5396 52.6347 24.4203C51.8896 24.2415 51.0254 24.1223 49.8631 24.1223C46.0782 24.1223 43.694 26.2982 43.694 29.4876C43.694 31.5145 44.4092 33.3626 47.5683 35.9558L48.9094 37.0587C51.4724 39.1751 52.3367 40.3674 52.3367 42.4241C52.3367 44.3318 50.936 46.3885 48.0749 46.3885C46.0782 46.3885 44.1112 45.5539 43.6642 43.3481C43.5748 42.9308 43.5748 42.5135 43.5748 42.2452C43.5748 42.0068 43.545 41.9173 43.3661 41.9173C43.2171 41.9173 43.1575 42.0664 43.1277 42.3943C43.0979 42.8712 42.9787 44.0635 42.9787 45.5539C42.9787 46.3587 43.0085 46.4779 43.4258 46.6865C44.6477 47.2827 46.0186 47.4914 47.4193 47.4914Z" fill="white"/>
<path d="M60.7205 35.777C60.7205 41.1423 64.118 47.4914 72.2838 47.4914C79.4662 47.4914 84.175 41.977 84.175 35.3001C84.175 28.3549 79.1682 24.1223 72.4626 24.1223C64.2372 24.1223 60.7205 30.9482 60.7205 35.777ZM63.5517 34.9424C63.5517 28.4145 67.277 25.1357 72.254 25.1357C76.9628 25.1357 81.314 28.9809 81.314 36.1347C81.314 44.8087 75.7707 46.3587 73.0885 46.3587C67.7241 46.3587 63.5517 41.8875 63.5517 34.9424Z" fill="white"/>
<path d="M92.6915 28.7424C93.6452 29.8155 97.0128 33.5712 100.47 37.2972C103.629 40.6952 107.921 45.0769 108.248 45.375C109.828 46.9548 110.186 47.2827 110.424 47.2827C110.633 47.2827 110.692 47.1337 110.692 45.1664L110.752 27.6992C110.752 25.9107 110.871 25.2549 111.854 25.0463C112.212 24.9569 112.421 24.9569 112.57 24.9569C112.778 24.9569 112.898 24.8674 112.898 24.7482C112.898 24.5694 112.689 24.5396 112.361 24.5396C111.139 24.5396 110.156 24.629 109.828 24.629C109.5 24.629 108.07 24.5396 106.728 24.5396C106.371 24.5396 106.132 24.5694 106.132 24.7482C106.132 24.8674 106.162 24.9569 106.371 24.9569C106.609 24.9569 107.295 24.9867 107.831 25.1059C108.755 25.3444 108.964 26.0001 108.993 27.9376L109.321 43.0798C108.368 42.0962 105.119 38.4597 102.169 35.3001C97.5791 30.3818 93.1385 25.5828 92.6915 25.0761C92.3935 24.778 91.8868 24.1223 91.6484 24.1223C91.41 24.1223 91.3206 24.4501 91.3206 25.6126L91.2908 42.6923C91.2908 45.4048 91.1418 46.2692 90.3967 46.4779C89.9497 46.6269 89.4132 46.6567 89.1748 46.6567C89.0258 46.6567 88.9364 46.7164 88.9364 46.8356C88.9364 47.0442 89.1152 47.074 89.4132 47.074C90.7543 47.074 92.006 46.9846 92.2743 46.9846C92.5425 46.9846 93.7346 47.074 95.4333 47.074C95.791 47.074 95.9698 47.0144 95.9698 46.8356C95.9698 46.7164 95.8804 46.6567 95.7313 46.6567C95.4631 46.6567 94.8075 46.6269 94.2412 46.4779C93.4366 46.2394 93.1385 45.4644 93.0789 43.0202L92.6915 28.7424Z" fill="white"/>
</g>
<defs>
<clipPath id="clip0_5464_870">
<rect width="113.4" height="46.9827" fill="white" transform="translate(0 0.508667)"/>
</clipPath>
</defs>
</svg>
